<?xml version="1.0" encoding="UTF-8" standalone="no"?>
<svg
   xmlns:dc="http://purl.org/dc/elements/1.1/"
   xmlns:cc="http://creativecommons.org/ns#"
   xmlns:rdf="http://www.w3.org/1999/02/22-rdf-syntax-ns#"
   xmlns:svg="http://www.w3.org/2000/svg"
   xmlns="http://www.w3.org/2000/svg"
   xmlns:sodipodi="http://sodipodi.sourceforge.net/DTD/sodipodi-0.dtd"
   xmlns:inkscape="http://www.inkscape.org/namespaces/inkscape"
   version="1.0"
   width="143.43044pt"
   height="101.20822pt"
   viewBox="0 0 105.18232 74.21936"
   preserveAspectRatio="xMidYMid meet"
   id="svg3886"
   sodipodi:docname="logo.svg"
   inkscape:version="0.92.2 (5c3e80d, 2017-08-06)">
  <metadata
     id="metadata3892">
    <rdf:RDF>
      <cc:Work
         rdf:about="">
        <dc:format>image/svg+xml</dc:format>
        <dc:type
           rdf:resource="http://purl.org/dc/dcmitype/StillImage" />
        <dc:title />
      </cc:Work>
    </rdf:RDF>
  </metadata>
  <defs
     id="defs3890" />
  <sodipodi:namedview
     pagecolor="#ffffff"
     bordercolor="#666666"
     borderopacity="1"
     objecttolerance="10"
     gridtolerance="10"
     guidetolerance="10"
     inkscape:pageopacity="0"
     inkscape:pageshadow="2"
     inkscape:window-width="1366"
     inkscape:window-height="745"
     id="namedview3888"
     showgrid="false"
     scale-x="0.55"
     fit-margin-top="-0.2"
     fit-margin-left="0"
     fit-margin-right="0"
     fit-margin-bottom="0"
     inkscape:zoom="3.0976602"
     inkscape:cx="79.48396"
     inkscape:cy="51.362194"
     inkscape:window-x="-8"
     inkscape:window-y="-8"
     inkscape:window-maximized="1"
     inkscape:current-layer="g3884"
     inkscape:measure-start="127.32,55.3951"
     inkscape:measure-end="180.782,16.464" />
  <g
     transform="matrix(0.1,0,0,-0.1,-67.333144,110.878)"
     id="g3884"
     style="fill:#000000;stroke:none">
    <path
       d="m 1115.2657,1061.4855 c -8.0885,-9.1388 -17.0756,-34.7273 -20.6705,-56.6604 l -6.291,-41.12452 22.4679,21.0192 c 26.0628,23.76082 32.3538,24.67472 53.923,4.56939 15.2782,-13.70817 16.1769,-12.7943 16.1769,17.36363 0,21.0192 -7.1897,38.3829 -20.6705,51.1772 -25.1641,24.6747 -26.9615,24.6747 -44.9358,3.6555 z"
       id="path3804"
       inkscape:connector-curvature="0"
       style="fill:#ff7f2a;stroke-width:0.90626568" />
    <path
       d="m 1046.9632,991.11692 c -15.2782,-18.27756 -27.8602,-39.29675 -27.8602,-48.43553 0,-8.2249 -2.6962,-25.58858 -6.291,-38.38288 -5.3923,-21.93307 -3.5949,-21.93307 26.0627,7.31103 22.468,21.93307 34.1513,42.03838 37.7462,67.62697 3.5948,20.10531 4.4935,38.38289 2.6961,41.12449 -2.6961,1.8278 -16.1769,-10.9665 -32.3538,-29.24408 z"
       id="path3806"
       inkscape:connector-curvature="0"
       style="fill:#999999;stroke-width:0.90626568" />
    <path
       d="m 1201.5425,987.46141 c 3.5949,-28.33022 13.4807,-48.43553 32.3538,-68.54085 30.5564,-30.15797 34.1512,-23.76083 18.873,31.98573 -5.3923,17.36368 -19.7717,42.03839 -32.3538,54.83271 l -24.2653,21.933 z"
       id="path3808"
       inkscape:connector-curvature="0"
       style="fill:#999999;stroke-width:0.90626568" />
    <path
       d="m 1107.1772,952.73405 c -17.9743,-20.10532 -24.2653,-38.38288 -29.6576,-89.56005 l -6.291,-63.97145 35.0499,33.81348 35.05,34.72736 29.6576,-30.15797 29.6577,-29.24409 -6.291,63.97145 c -4.4936,46.60778 -11.6834,68.54085 -26.0628,84.07678 -24.2654,26.50246 -33.2526,26.50246 -61.1128,-3.65551 z"
       id="path3810"
       inkscape:connector-curvature="0"
       style="fill:#ff7f2a;stroke-width:0.90626568" />
    <path
       d="m 1033.4824,877.79605 c -27.8602,-29.24409 -36.8473,-48.43553 -50.3281,-106.92372 -8.9872,-40.21063 -15.2782,-73.11024 -14.3795,-74.02412 0.8988,-0.91388 20.6705,17.36368 44.0372,41.12451 38.6448,40.21063 42.2397,46.60778 49.4294,109.66536 4.4936,35.64124 7.1897,65.79921 6.291,65.79921 0,0 -16.1769,-16.4498 -35.05,-35.64124 z"
       id="path3812"
       inkscape:connector-curvature="0"
       style="fill:#999999;stroke-width:0.90626568" />
    <path
       d="m 1212.3271,876.88217 c 2.6961,-22.84695 7.1897,-53.9188 9.8859,-68.54084 2.6961,-18.27756 18.873,-42.95227 45.8345,-68.54085 22.468,-22.84695 39.5436,-34.72737 36.8474,-27.41634 -2.6961,7.31102 -9.8859,41.12451 -16.1769,74.93799 -9.8859,51.17717 -17.9743,67.62697 -46.7333,95.95719 l -35.0499,34.72736 z"
       id="path3814"
       inkscape:connector-curvature="0"
       style="fill:#999999;stroke-width:0.90626568" />
    <path
       d="m 1098.1901,806.51357 c -26.0628,-29.2441 -33.2526,-43.86614 -37.7461,-86.81841 l -5.3923,-53.00492 h 81.7832 81.7832 l -6.291,53.00492 c -4.4936,42.95227 -11.6833,57.57431 -38.6448,86.81841 -17.9744,18.27756 -35.05,33.81348 -37.7461,33.81348 -2.6962,0 -19.7718,-15.53592 -37.7461,-33.81348 z"
       id="path3816"
       inkscape:connector-curvature="0"
       style="fill:#ff7f2a;stroke-width:0.90626568" />
    <path
       d="m 1001.1286,707.81475 -39.5435,-41.12451 h 41.341 41.3409 l 3.5949,41.12451 c 1.7974,22.84695 0.8987,41.12451 -1.7974,41.12451 -2.6962,0 -23.3667,-18.27756 -44.9359,-41.12451 z"
       id="path3818"
       inkscape:connector-curvature="0"
       style="fill:#999999;stroke-width:0.90626568" />
    <path
       d="m 1231.2001,712.38414 c 3.5949,-22.84695 7.1898,-42.03839 8.0885,-43.86615 1.7974,-1.82775 17.0756,-1.82775 35.9487,0 l 32.3538,2.74164 -41.341,41.12451 -41.341,41.12451 z"
       id="path3820"
       inkscape:connector-curvature="0"
       style="fill:#999999;stroke-width:0.90626568" />
    <text
       xml:space="preserve"
       style="font-style:normal;font-weight:normal;font-size:226.51347351px;line-height:1.25;font-family:sans-serif;letter-spacing:0px;word-spacing:0px;fill:#666666;fill-opacity:1;stroke:none;stroke-width:5.66283703"
       x="896.25928"
       y="-522.08472"
       id="text4072"
       transform="scale(1.0659967,-0.9380892)"><tspan
         sodipodi:role="line"
         id="tspan4070"
         x="896.25928"
         y="-522.08472"
         style="fill:#666666;stroke-width:5.66283703">CV</tspan></text>
    <text
       xml:space="preserve"
       style="font-style:normal;font-weight:normal;font-size:66.06951141px;line-height:1.25;font-family:sans-serif;letter-spacing:0px;word-spacing:0px;fill:#ff7f2a;fill-opacity:1;stroke:none;stroke-width:1.65173769"
       x="666.71246"
       y="-443.82706"
       id="text4076"
       transform="scale(1.0793756,-0.92646153)"><tspan
         sodipodi:role="line"
         id="tspan4074"
         x="666.71246"
         y="-443.82706"
         style="fill:#ff7f2a;stroke-width:1.65173769">Miguel I. Triggiano Turcatti</tspan></text>
  </g>
</svg>
